<svg width="36" height="36" viewBox="0 0 36 36" fill="none" xmlns="http://www.w3.org/2000/svg">
  <rect width="36" height="36" rx="10" fill="#ED3E45"/>
  <path d="M15.7031 20.8793L17.1483 20.8793L16.4232 19.193L15.7031 20.8793Z" fill="white"/>
  <path d="M15.3472 21.7291L14.9184 22.7102H13.9421L16.0181 18.0003H16.8619L18.9295 22.7102H17.9272L17.5039 21.7291H15.3472Z" fill="white"/>
  <path d="M31.0565 22.7067H32V18H31.0565V22.7067Z" fill="white"/>
  <path d="M27.3011 20.6848H29.0403V19.8266H27.3011V18.862H29.8259V18.0035H26.3578V22.7099H29.9167V21.8514H27.3011V20.6848Z" fill="white"/>
  <path d="M23.5521 21.2409L22.4824 18H21.7017L20.632 21.2409L19.591 18.0026H18.573L20.2159 22.7128H21.0073L22.0787 19.6189L23.1502 22.7128H23.9485L25.587 18.0026H24.5954L23.5521 21.2409Z" fill="white"/>
  <path d="M12.5018 20.6978C12.5018 21.464 12.1213 21.8734 11.4303 21.8734C10.7356 21.8734 10.3531 21.4521 10.3531 20.6651V18.0032H9.39682V20.6978C9.39682 22.0233 10.1335 22.7834 11.4173 22.7834C12.7139 22.7834 13.4572 22.0088 13.4572 20.6585V18.0003H12.5018V20.6978Z" fill="white"/>
  <path d="M7.11535 18.0003H8.07105V22.7131H7.11535V20.7991H4.95628V22.7131H4V18.0003H4.95628V19.9013H7.11535V18.0003Z" fill="white"/>
  <path d="M18 12C14.6913 12 12 9.30845 12 6H12.8475C12.8475 8.84086 15.1591 11.1522 18 11.1522C20.8409 11.1522 23.1525 8.84086 23.1525 6H24C24 9.30845 21.3084 12 18 12" fill="white"/>
</svg>
